<?xml version="1.0" encoding="UTF-8"?>
<svg version="1.1" xmlns="http://www.w3.org/2000/svg" width="234" height="237">
<path d="M0 0 C0.125 5.75 0.125 5.75 -1 8 C-0.43603516 7.93941406 0.12792969 7.87882813 0.70898438 7.81640625 C3.30555006 7.53994962 5.90274897 7.26993901 8.5 7 C9.386875 6.90460937 10.27375 6.80921875 11.1875 6.7109375 C16.49234474 6.16485054 21.66737152 5.9003247 27 6 C27.67408308 7.26691507 28.33900497 8.53870749 29 9.8125 C29.37125 10.52019531 29.7425 11.22789063 30.125 11.95703125 C31 14 31 14 31 17 C31.99 17 32.98 17 34 17 C34.33 14.36 34.66 11.72 35 9 C43.95973598 6.85959795 52.94153379 4.98382236 62 3.3125 C63.18722656 3.08755859 64.37445313 2.86261719 65.59765625 2.63085938 C66.74105469 2.41880859 67.88445312 2.20675781 69.0625 1.98828125 C70.08472656 1.79790283 71.10695312 1.60752441 72.16015625 1.41137695 C74.82296824 1.02564465 77.31462096 0.92208705 80 1 C80.02708567 2.60407328 80.04643483 4.2082785 80.0625 5.8125 C80.07410156 6.70582031 80.08570313 7.59914063 80.09765625 8.51953125 C80 11 80 11 79 14 C80.32 14 81.64 14 83 14 C83.0783926 25.90680093 82.87559969 37.76805292 82.37890625 49.6640625 C82.31382162 51.27826061 82.24896146 52.89246779 82.18431091 54.50668335 C82.04961527 57.84944538 81.91237668 61.19208987 81.77319336 64.53466797 C81.59579082 68.79971225 81.42476742 73.06498497 81.25558567 77.33036232 C81.12335872 80.64714735 80.98788018 83.9637935 80.85142326 87.28040695 C80.78706653 88.85350984 80.72367771 90.42665266 80.66131783 91.99983597 C80.57380349 94.1948649 80.48191343 96.38967006 80.38891602 98.58447266 C80.33784195 99.82701813 80.28676788 101.0695636 80.23414612 102.34976196 C80.06098896 105.04920811 79.796836 107.63934223 79.42739868 110.31137085 C78.99000089 114.08629646 79.06930459 115.30308441 81.01953125 118.4375 C81.46490234 119.18773438 81.91027344 119.93796875 82.36914062 120.7109375 C82.84544922 121.46632813 83.32175781 122.22171875 83.8125 123 C84.7447043 124.51531683 85.66804309 126.03612665 86.58203125 127.5625 C86.99686768 128.22378906 87.4117041 128.88507813 87.83911133 129.56640625 C91.00843813 136.21032835 91.30823248 142.76121289 91.30078125 149.984375 C91.30506638 150.92122131 91.3093515 151.85806763 91.31376648 152.82330322 C91.31948164 154.796582 91.32003093 156.76988182 91.31567383 158.74316406 C91.31252366 161.7275886 91.33597485 164.71101085 91.36132812 167.6953125 C91.41715135 184.33132895 89.7445652 198.49142978 77.984375 211.15625 C64.99833229 223.22202196 45.82973213 225.11040783 29 227 C27.84886719 227.13277344 26.69773438 227.26554688 25.51171875 227.40234375 C7.81301301 229.07809669 -15.79367696 230.993195 -31 220 C-33.60907819 217.46169247 -35.75226246 214.88296772 -38 212 C-38.33 218.27 -38.66 224.54 -39 231 C-46.684433 231.78657354 -54.36920235 232.5697039 -62.05458832 233.34690857 C-65.62385162 233.70799581 -69.19295354 234.07054355 -72.76171875 234.43652344 C-76.21081552 234.79017537 -79.6602936 235.13986749 -83.11006165 235.48690796 C-85.05554265 235.68363644 -87.00061624 235.88438069 -88.94567871 236.08520508 C-94.99708433 236.69065019 -100.9181306 237.15935029 -107 237 C-107 235.68 -107 234.36 -107 233 C-110.3 233.33 -113.6 233.66 -117 234 C-117 216.18 -117 198.36 -117 180 C-119.97 180.99 -122.94 181.98 -126 183 C-126.66 183 -127.32 183 -128 183 C-128.66 180.69 -129.32 178.38 -130 176 C-130.598125 176.33 -131.19625 176.66 -131.8125 177 C-134 178 -134 178 -137 178 C-137.86536808 172.09739181 -138.71939641 166.19328771 -139.56347656 160.28759766 C-139.85146754 158.28357993 -140.14241964 156.27998522 -140.43652344 154.27685547 C-143.56786889 132.92193152 -143.56786889 132.92193152 -143 123 C-141.515 122.505 -141.515 122.505 -140 122 C-139.87714326 103.94850879 -139.97039985 85.91670653 -140.47265625 67.87109375 C-140.49587322 67.03303822 -140.51909019 66.19498268 -140.54301071 65.33153152 C-140.73452251 58.48115938 -140.93771788 51.63114271 -141.14154053 44.78112793 C-141.29579603 39.58386763 -141.44599574 34.38652251 -141.59051323 29.18898201 C-141.65901287 26.78620058 -141.73356172 24.38365605 -141.80836487 21.98106384 C-141.84919316 20.53482916 -141.88973241 19.08858629 -141.92993164 17.64233398 C-141.96768204 16.37920883 -142.00543243 15.11608368 -142.04432678 13.81468201 C-142 11 -142 11 -141 10 C-139.2016678 9.89049026 -137.3990353 9.85090648 -135.59741211 9.83886719 C-134.44208481 9.82925964 -133.28675751 9.8196521 -132.09642029 9.80975342 C-130.83612503 9.80550354 -129.57582977 9.80125366 -128.27734375 9.796875 C-126.34357628 9.78832489 -126.34357628 9.78832489 -124.3707428 9.77960205 C-121.63265589 9.76907704 -118.89459844 9.76324575 -116.15649414 9.75976562 C-112.66521414 9.75430955 -109.17432985 9.73035093 -105.68317318 9.70179367 C-102.33957177 9.67855086 -98.99602169 9.67670824 -95.65234375 9.671875 C-93.78315529 9.6533548 -93.78315529 9.6533548 -91.87620544 9.63446045 C-85.1872492 9.65151017 -80.07838048 10.14213781 -74 13 C-73.34 10.69 -72.68 8.38 -72 6 C-64.82820818 5.20813819 -57.65549422 4.42523606 -50.48155117 3.65309143 C-47.14874931 3.29410565 -43.81645139 2.93141653 -40.48461914 2.56347656 C-12.09481875 -0.56786889 -12.09481875 -0.56786889 0 0 Z " fill="#040503" transform="translate(143,0)"/>
<path d="M0 0 C0.86766998 -0.01212524 1.73533997 -0.02425049 2.62930298 -0.03674316 C15.255445 -0.18652336 27.46758784 0.22006228 37.69140625 8.6796875 C46.87013982 18.26305201 46.72593261 30.9645398 46.69067383 43.41088867 C46.68752077 45.73469306 46.71100964 48.0572122 46.73632812 50.38085938 C46.79843837 65.06180225 44.6755098 79.5379099 34.28515625 90.65625 C16.60843882 107.14006012 -13.23647434 106.52751754 -35.8125 106.75 C-36.81450439 106.76764404 -37.81650879 106.78528809 -38.84887695 106.8034668 C-50.16067467 106.79314838 -60.81381589 104.64359031 -69.33984375 96.875 C-79.74788553 85.88166492 -77.9703816 69.45855075 -77.72265625 55.46826172 C-77.52591596 49.36242673 -76.77741555 43.44027214 -75.625 37.4375 C-75.44195312 36.38691406 -75.25890625 35.33632812 -75.0703125 34.25390625 C-73.08346233 24.6262681 -68.911224 16.54597606 -61 10.5 C-43.36536465 -0.52822718 -20.08202758 0.14700903 0 0 Z " fill="#FAFAFA" transform="translate(174.625,105.5625)"/>
<path d="M0 0 C0.14941376 18.80023495 -0.24157638 37.56168708 -0.86883545 56.34851074 C-0.96144359 59.16593852 -1.04848496 61.98352806 -1.13556576 64.80113125 C-1.22150568 67.5612639 -1.31064916 70.32128608 -1.40075874 73.08128548 C-1.4627039 74.99256968 -1.52228027 76.90393021 -1.58177185 78.81529236 C-1.82268509 85.90752691 -2.26349034 92.9415248 -3 100 C-3.97235596 100.08564209 -4.94471191 100.17128418 -5.9465332 100.25952148 C-9.60507544 100.58179573 -13.26359978 100.90427284 -16.92211914 101.22680664 C-18.4960076 101.36553259 -20.06990072 101.50420583 -21.64379883 101.64282227 C-23.17212009 101.77743117 -24.70043035 101.91216506 -26.22872925 102.04702759 C-27.73528982 102.17975533 -29.24190221 102.31189631 -30.74856567 102.44345093 C-33.8923069 102.71902943 -37.03347752 103.00338433 -40.17333984 103.32080078 C-46.46877236 103.95583196 -52.6736409 104.11013004 -59 104 C-59.77013464 83.98674046 -60.14646257 64.02932038 -60 44 C-61.77117188 44.54140625 -61.77117188 44.54140625 -63.578125 45.09375 C-65.13533005 45.56278767 -66.69262654 46.03152181 -68.25 46.5 C-69.02730469 46.73847656 -69.80460937 46.97695312 -70.60546875 47.22265625 C-71.73662109 47.56103516 -71.73662109 47.56103516 -72.890625 47.90625 C-73.92751465 48.22045898 -73.92751465 48.22045898 -74.98535156 48.54101562 C-77 49 -77 49 -81 49 C-81.43196052 44.99862104 -81.85902396 40.99675135 -82.28173828 36.99438477 C-82.42593111 35.63552063 -82.57141485 34.27679278 -82.71826172 32.91821289 C-82.93023227 30.95496187 -83.13703304 28.99115489 -83.34375 27.02734375 C-83.46943359 25.84906006 -83.59511719 24.67077637 -83.72460938 23.45678711 C-84.00353806 19.95558925 -84.04704459 16.51070246 -84 13 C-70.12686612 7.3512562 -56.76439796 4.12525207 -41.9375 2.5625 C-40.84168106 2.44666565 -40.84168106 2.44666565 -39.72372437 2.32849121 C-34.82062097 1.82333591 -29.91358377 1.38926615 -25 1 C-24.32882141 0.94672546 -23.65764282 0.89345093 -22.96612549 0.83856201 C-15.29086271 0.2445332 -7.69561388 -0.056137 0 0 Z " fill="#FCFCFC" transform="translate(93,116)"/>
<path d="M0 0 C6.10666711 6.19568558 6.74547151 12.42653602 6.70336914 20.83984375 C6.44663578 31.50169497 2.19479411 38.38760689 -4.66015625 46.359375 C-4.06460938 46.62363281 -3.4690625 46.88789062 -2.85546875 47.16015625 C1.83156872 49.72051302 4.73081728 53.86449184 6.71484375 58.734375 C8.20880574 67.39935455 7.72882249 75.73219223 3.0859375 83.44140625 C-1.23586903 89.03502506 -7.03954645 91.13404608 -13.9296875 92.06713867 C-15.44284026 92.23168262 -16.9572855 92.38466416 -18.47265625 92.52734375 C-19.28581299 92.61188309 -20.09896973 92.69642242 -20.93676758 92.78352356 C-22.64385798 92.95894926 -24.3514802 93.12926916 -26.05957031 93.29467773 C-28.65429089 93.54630619 -31.24700104 93.81375342 -33.83984375 94.08398438 C-35.50902066 94.25353143 -37.17828899 94.42218134 -38.84765625 94.58984375 C-39.61247314 94.6679277 -40.37729004 94.74601166 -41.1652832 94.82646179 C-41.899646 94.89686172 -42.63400879 94.96726166 -43.390625 95.03979492 C-44.02379639 95.10180588 -44.65696777 95.16381683 -45.30932617 95.22770691 C-48.75448245 95.42066733 -52.20960042 95.359375 -55.66015625 95.359375 C-55.66015625 63.349375 -55.66015625 31.339375 -55.66015625 -1.640625 C-6.00111111 -4.84443436 -6.00111111 -4.84443436 0 0 Z " fill="#81BC37" transform="translate(66.66015625,20.640625)"/>
<path d="M0 0 C-1.32 28.71 -2.64 57.42 -4 87 C-12.65386506 87.57692434 -21.32692545 88 -30 88 C-35.28 76.12 -40.56 64.24 -46 52 C-46 64.21 -46 76.42 -46 89 C-49.485625 89.495 -52.97125 89.99 -56.5625 90.5 C-57.64732666 90.65662109 -58.73215332 90.81324219 -59.84985352 90.97460938 C-60.72569092 91.09642578 -61.60152832 91.21824219 -62.50390625 91.34375 C-63.83143921 91.53227539 -63.83143921 91.53227539 -65.18579102 91.72460938 C-68.44292364 92.04334327 -71.72730933 92 -75 92 C-75 63.29 -75 34.58 -75 5 C-54 2 -54 2 -47 2 C-46.69707031 2.89460937 -46.39414063 3.78921875 -46.08203125 4.7109375 C-43.80971217 11.26919995 -41.41399418 17.47613142 -38.1875 23.63671875 C-36.60978078 26.77658758 -35.34120308 30.00394215 -34.08984375 33.28515625 C-32.50371279 37.23627101 -30.7291733 41.10936008 -29 45 C-28.67 31.14 -28.34 17.28 -28 3 C-24.308125 2.505 -20.61625 2.01 -16.8125 1.5 C-15.07963745 1.26506836 -15.07963745 1.26506836 -13.31176758 1.02539062 C-11.9296106 0.84266602 -11.9296106 0.84266602 -10.51953125 0.65625 C-9.58214111 0.53056641 -8.64475098 0.40488281 -7.67895508 0.27539062 C-5 0 -5 0 0 0 Z " fill="#83BD37" transform="translate(213,11)"/>
<path d="M0 0 C0.86625 0.66 1.7325 1.32 2.625 2 C3.8934375 2.8353125 3.8934375 2.8353125 5.1875 3.6875 C11.45531748 9.63389094 13.73968564 16.95588115 14.125 25.375 C14.06811605 36.27396493 8.83334249 45.05318817 1.625 53 C-11.83803271 64.24559203 -25.97121368 68.27492853 -43.375 67 C-53.81580401 65.26472671 -61.80766881 59.81952678 -67.93359375 51.27734375 C-72.42818846 44.17612772 -73.44398072 37.36503359 -72.375 29 C-69.1128423 16.55021942 -60.17293296 6.72517853 -49.375 0 C-33.41483525 -7.84759058 -15.67041882 -9.28617411 0 0 Z " fill="#060706" transform="translate(190.375,128)"/>
<path d="M0 0 C0 9.24 0 18.48 0 28 C-10.43441933 29.19250507 -20.48990094 30.27298959 -31 30 C-31 33.96 -31 37.92 -31 42 C-29.56527344 41.7834375 -28.13054687 41.566875 -26.65234375 41.34375 C-24.74743478 41.06223636 -22.84248465 40.78100106 -20.9375 40.5 C-19.99455078 40.35691406 -19.05160156 40.21382812 -18.08007812 40.06640625 C-16.69272461 39.86337891 -16.69272461 39.86337891 -15.27734375 39.65625 C-14.43421631 39.53056641 -13.59108887 39.40488281 -12.72241211 39.27539062 C-9.49676977 38.94909482 -6.24210386 39 -3 39 C-3 43.62 -3 48.24 -3 53 C-6.35379513 53.33748882 -9.70795526 53.67011786 -13.0625 54 C-14.00544922 54.09539063 -14.94839844 54.19078125 -15.91992188 54.2890625 C-20.97512222 54.78225278 -25.92103608 55.11270932 -31 55 C-31 58.3 -31 61.6 -31 65 C-29.95658447 64.86368164 -29.95658447 64.86368164 -28.89208984 64.72460938 C-25.72022339 64.3124728 -22.54763387 63.90618496 -19.375 63.5 C-18.28058594 63.35691406 -17.18617187 63.21382812 -16.05859375 63.06640625 C-14.46337891 62.86337891 -14.46337891 62.86337891 -12.8359375 62.65625 C-11.86188965 62.53056641 -10.8878418 62.40488281 -9.88427734 62.27539062 C-6.9348428 61.99377879 -3.96284818 62 -1 62 C-1 71.24 -1 80.48 -1 90 C-5.1146875 90.4021875 -5.1146875 90.4021875 -9.3125 90.8125 C-15.55551597 91.42596635 -21.79153751 92.08250238 -28.0234375 92.80078125 C-29.21155029 92.93701904 -30.39966309 93.07325684 -31.6237793 93.21362305 C-33.95647675 93.48289723 -36.2886982 93.75633557 -38.62036133 94.03442383 C-39.70857178 94.15970459 -40.79678223 94.28498535 -41.91796875 94.4140625 C-42.87469482 94.5270166 -43.8314209 94.6399707 -44.81713867 94.75634766 C-48.86705538 95.06637426 -52.93823415 95 -57 95 C-57 64.97 -57 34.94 -57 4 C-14.33333333 0 -14.33333333 0 0 0 Z " fill="#82BC37" transform="translate(134,9)"/>
<path d="M0 0 C1.76171875 1.63671875 1.76171875 1.63671875 3 3 C2.443125 3.60585937 1.88625 4.21171875 1.3125 4.8359375 C-4.82731958 11.57729346 -10.93313451 18.39970177 -16 26 C-15.30003906 26.24878906 -14.60007813 26.49757812 -13.87890625 26.75390625 C-10.61392069 28.16710896 -7.88003634 29.93984891 -4.9375 31.9375 C-3.91527344 32.62714844 -2.89304688 33.31679687 -1.83984375 34.02734375 C-0.90269531 34.67832031 0.03445312 35.32929688 1 36 C1.78246094 36.51691406 2.56492188 37.03382813 3.37109375 37.56640625 C3.90863281 38.03949219 4.44617188 38.51257813 5 39 C5 42 5 42 3.3828125 43.6484375 C-6.81805369 51.44909988 -16.85788311 56.40108366 -29.875 56.375 C-30.6685791 56.37411377 -31.4621582 56.37322754 -32.27978516 56.37231445 C-40.07422738 56.21456788 -46.05241422 54.17181372 -52 49 C-50.38413436 45.05428159 -47.6478236 42.28632075 -44.75 39.25 C-40.48979354 34.70596574 -36.61726576 30.08372485 -33 25 C-38.98178131 20.64076335 -44.9679406 16.28946446 -51 12 C-48.48844998 6.0350687 -43.00452974 2.46498239 -37.32421875 -0.3046875 C-25.60683495 -5.06107737 -11.31282424 -6.88907219 0 0 Z " fill="#B0C833" transform="translate(184,131)"/>
<path d="M0 0 C2.49361571 1.20381448 4.68143083 2.45428722 7 4 C7 7 7 7 5.3828125 8.6484375 C-4.81805369 16.44909988 -14.85788311 21.40108366 -27.875 21.375 C-28.6685791 21.37411377 -29.4621582 21.37322754 -30.27978516 21.37231445 C-38.07422738 21.21456788 -44.05241422 19.17181372 -50 14 C-48.63629701 11.00779732 -47.05091917 8.70973471 -44.875 6.25 C-44.33617187 5.63640625 -43.79734375 5.0228125 -43.2421875 4.390625 C-42.62730469 3.70226562 -42.62730469 3.70226562 -42 3 C-39 6.75 -39 6.75 -39 9 C-38.0925 9.28875 -37.185 9.5775 -36.25 9.875 C-33.67797092 10.76531776 -31.38653234 11.71494413 -29 13 C-29 13.66 -29 14.32 -29 15 C-23.06 14.67 -17.12 14.34 -11 14 C-10.67 12.68 -10.34 11.36 -10 10 C-8.4765625 8.4375 -8.4765625 8.4375 -6.625 7 C-3.98759781 4.86624956 -1.8738636 2.86590904 0 0 Z " fill="#3CA345" transform="translate(182,166)"/>
<path d="M0 0 C0.99 0.99 1.98 1.98 3 3 C0.69 5.64 -1.62 8.28 -4 11 C-6 10 -6 10 -7 7 C-7.66 6.67 -8.32 6.34 -9 6 C-9 5.34 -9 4.68 -9 4 C-19.66044248 2.60190918 -28.7734866 2.27320119 -39 6 C-39 6.66 -39 7.32 -39 8 C-39.45375 8.433125 -39.9075 8.86625 -40.375 9.3125 C-42.34309231 11.35628817 -43.06726871 13.34530324 -44 16 C-48.71346154 14.51153846 -48.71346154 14.51153846 -50.1640625 11.921875 C-50.43992188 11.28765625 -50.71578125 10.6534375 -51 10 C-37.92306137 -2.67513325 -16.89472479 -10.28823363 0 0 Z " fill="#4AAD47" transform="translate(184,131)"/>
<path d="M0 0 C0 0.66 0 1.32 0 2 C0.99 2.33 1.98 2.66 3 3 C3.8125 5.125 3.8125 5.125 4 8 C2.55576519 10.30107561 0.89127865 12.01646386 -1 14 C-2.7074998 12.71937515 -4.37373596 11.38232443 -6 10 C-6 9.34 -6 8.68 -6 8 C-6.639375 7.690625 -7.27875 7.38125 -7.9375 7.0625 C-10 6 -10 6 -11 5 C-13.30045246 4.50715439 -13.30045246 4.50715439 -16 5 C-18.93065371 7.10651064 -18.93065371 7.10651064 -21.6875 9.875 C-23.11642578 11.23238281 -23.11642578 11.23238281 -24.57421875 12.6171875 C-26.05539487 14.07212701 -27.53188357 15.53188357 -29 17 C-30.98 15.68 -32.96 14.36 -35 13 C-34.5020163 9.26512223 -34.12508244 7.18762365 -32 4 C-31.34 4 -30.68 4 -30 4 C-30 3.34 -30 2.68 -30 2 C-19.61977868 -3.04375179 -11.01440943 -2.88902543 0 0 Z " fill="#87BA3D" transform="translate(175,135)"/>
<path d="M0 0 C2.31 1.32 4.62 2.64 7 4 C5.78620708 9.00689579 2.63195542 11.27066131 -1.22265625 14.3515625 C-3.25866607 15.97511608 -3.25866607 15.97511608 -4 19 C-7.61867559 20.2062252 -10.92506251 20.10816918 -14.6875 20.0625 C-15.38939453 20.05798828 -16.09128906 20.05347656 -16.81445312 20.04882812 C-18.54300538 20.03706927 -20.27151365 20.01913454 -22 20 C-22 19.34 -22 18.68 -22 18 C-22.9075 17.71125 -23.815 17.4225 -24.75 17.125 C-31.46666667 14.8 -31.46666667 14.8 -34 11 C-33.9375 8.5625 -33.9375 8.5625 -33 6 C-30.4375 3.6875 -30.4375 3.6875 -28 2 C-27 3 -27 3 -26.90234375 5.06640625 C-26.91394531 5.89011719 -26.92554688 6.71382812 -26.9375 7.5625 C-26.94652344 8.38878906 -26.95554688 9.21507812 -26.96484375 10.06640625 C-26.98224609 11.02353516 -26.98224609 11.02353516 -27 12 C-26.01 12 -25.02 12 -24 12 C-23.6596875 13.2065625 -23.6596875 13.2065625 -23.3125 14.4375 C-22.879375 15.283125 -22.44625 16.12875 -22 17 C-19.45224694 17.89386164 -19.45224694 17.89386164 -17 18 C-17 17.34 -17 16.68 -17 16 C-15.02 16 -13.04 16 -11 16 C-10.61328125 15.15115234 -10.61328125 15.15115234 -10.21875 14.28515625 C-8.87145886 11.75898537 -7.28581825 9.67355633 -5.5 7.4375 C-3.55613602 4.99531495 -1.73348485 2.60022728 0 0 Z " fill="#7CB840" transform="translate(175,161)"/>
<path d="M0 0 C2.49361571 1.20381448 4.68143083 2.45428722 7 4 C7 4.99 7 5.98 7 7 C4.24502812 9.64093165 1.1028163 11.78445266 -2 14 C-2.86625 14.61875 -3.7325 15.2375 -4.625 15.875 C-10.13704675 18.48596951 -16.45507712 18.13365416 -22.4375 18.0625 C-23.16904297 18.05798828 -23.90058594 18.05347656 -24.65429688 18.04882812 C-26.43623419 18.03718148 -28.21812863 18.01925191 -30 18 C-30 17.01 -30 16.02 -30 15 C-23.73 14.67 -17.46 14.34 -11 14 C-10.67 12.68 -10.34 11.36 -10 10 C-8.4765625 8.4375 -8.4765625 8.4375 -6.625 7 C-3.98759781 4.86624956 -1.8738636 2.86590904 0 0 Z " fill="#5AB145" transform="translate(182,166)"/>
<path d="M0 0 C7 1 7 1 8.875 2.0625 C10.71732789 5.23539803 11.35010438 8.34176645 11 12 C7.70216075 16.59698805 5.57431709 17.1418943 0 19 C0 12.73 0 6.46 0 0 Z " fill="#080E05" transform="translate(38,37)"/>
<path d="M0 0 C7 1 7 1 9.4375 2.6875 C11.52522494 5.77733292 11.6725974 7.3380808 11 11 C8.875 13.875 8.875 13.875 6 16 C4.02 16 2.04 16 0 16 C0 10.72 0 5.44 0 0 Z " fill="#090B03" transform="translate(38,76)"/>
<path d="M0 0 C-2.70612632 1.38963243 -5.4366586 2.59632763 -8.25 3.75 C-12.36184447 5.55569486 -15.69014267 7.83021271 -19.203125 10.60546875 C-21.35738901 12.27736495 -23.62507895 13.66410691 -26 15 C-25.5020163 11.26512223 -25.12508244 9.18762365 -23 6 C-22.34 6 -21.68 6 -21 6 C-21 5.34 -21 4.68 -21 4 C-13.81947541 0.51098155 -7.9587799 -0.54470737 0 0 Z " fill="#79B841" transform="translate(166,133)"/>
<path d="M0 0 C1.96170702 1.59842795 2.7543626 3.0421565 3.6875 5.375 C4.3475 5.375 5.0075 5.375 5.6875 5.375 C5.6875 6.365 5.6875 7.355 5.6875 8.375 C5.0275 8.375 4.3675 8.375 3.6875 8.375 C3.6875 7.715 3.6875 7.055 3.6875 6.375 C3.048125 6.065625 2.40875 5.75625 1.75 5.4375 C-0.3125 4.375 -0.3125 4.375 -1.3125 3.375 C-3.61295246 2.88215439 -3.61295246 2.88215439 -6.3125 3.375 C-9.24315371 5.48151064 -9.24315371 5.48151064 -12 8.25 C-13.42892578 9.60738281 -13.42892578 9.60738281 -14.88671875 10.9921875 C-16.36789487 12.44712701 -17.84438357 13.90688357 -19.3125 15.375 C-20.15134838 13.02622453 -20.47117605 11.80680696 -19.59765625 9.4296875 C-16.64241208 4.70488983 -10.70419534 1.60973178 -5.5 -0.125 C-2.3125 -0.625 -2.3125 -0.625 0 0 Z " fill="#92BF3C" transform="translate(165.3125,136.625)"/>
<path d="M0 0 C18.10360691 -0.80859783 18.10360691 -0.80859783 26 4 C27.76171875 5.63671875 27.76171875 5.63671875 29 7 C27.35 8.65 25.7 10.3 24 12 C23.34 11.2575 22.68 10.515 22 9.75 C18.82479426 6.53819246 15.08683153 4.81524279 11 3 C11 2.34 11 1.68 11 1 C7.37 1 3.74 1 0 1 C0 0.67 0 0.34 0 0 Z " fill="#359E43" transform="translate(158,127)"/>
<path d="M0 0 C0 0.66 0 1.32 0 2 C-0.89460938 1.96519531 -1.78921875 1.93039063 -2.7109375 1.89453125 C-10.39283212 1.72254853 -16.81300301 2.21793665 -24 5 C-24 5.66 -24 6.32 -24 7 C-24.680625 7.6496875 -24.680625 7.6496875 -25.375 8.3125 C-27.34309231 10.35628817 -28.06726871 12.34530324 -29 15 C-29.99 14.67 -30.98 14.34 -32 14 C-31.88279837 10.13234625 -30.49001862 8.10735515 -27.9375 5.375 C-21.0488677 -0.99976256 -8.85895844 -4.42947922 0 0 Z " fill="#5DB045" transform="translate(169,132)"/>
<path d="M0 0 C2.97 0.33 5.94 0.66 9 1 C9 1.66 9 2.32 9 3 C9.99 3.33 10.98 3.66 12 4 C12.6875 6.25 12.6875 6.25 13 9 C11.75 11.3125 11.75 11.3125 10 13 C9.01 13 8.02 13 7 13 C7 11.02 7 9.04 7 7 C6.34 7 5.68 7 5 7 C5 6.34 5 5.68 5 5 C4.360625 4.731875 3.72125 4.46375 3.0625 4.1875 C1 3 1 3 0 0 Z " fill="#78B741" transform="translate(166,134)"/>
<path d="M0 0 C3 1.8125 3 1.8125 6 4 C6 4.99 6 5.98 6 7 C2.15412338 10.68667911 -4.48116236 17 -10 17 C-10 16.34 -10 15.68 -10 15 C-8.57421875 13.73828125 -8.57421875 13.73828125 -6.6875 12.3125 C-2.91838286 9.20717475 -1.50921056 6.61640876 0 2 C0 1.34 0 0.68 0 0 Z " fill="#48A644" transform="translate(183,166)"/>
<path d="M0 0 C-2.97 0.66 -5.94 1.32 -9 2 C-9 2.66 -9 3.32 -9 4 C-10.44010088 4.93774011 -11.8821456 5.8726913 -13.3359375 6.7890625 C-16.6057695 9.16851771 -19.19301487 12.38602975 -21 16 C-22.32 15.34 -23.64 14.68 -25 14 C-22.12822852 7.17954273 -15.2592078 3.30392866 -8.6875 0.5 C-4.92276199 -1.00347025 -4.16951101 -1.04237775 0 0 Z " fill="#3CA244" transform="translate(158,129)"/>
<path d="M0 0 C0.99 0.33 1.98 0.66 3 1 C2.50846451 5.20696551 1.50511456 6.94503726 -1.75 9.625 C-2.46671875 10.21667969 -3.1834375 10.80835938 -3.921875 11.41796875 C-6.18711694 13.14244805 -8.48462127 14.66370505 -11 16 C-9.53461846 12.78348751 -7.70270269 10.1955451 -5.5 7.4375 C-3.55613602 4.99531495 -1.73348485 2.60022728 0 0 Z " fill="#90BD3C" transform="translate(175,161)"/>
<path d="M0 0 C3 3.75 3 3.75 3 6 C3.9075 6.268125 4.815 6.53625 5.75 6.8125 C8.71471963 7.89576294 10.6169754 8.98359457 13 11 C6.94623366 11.41750113 3.818224 11.11311805 -1 7 C-2 4 -2 4 -1.0625 1.8125 C-0.5365625 0.9153125 -0.5365625 0.9153125 0 0 Z " fill="#5BAF45" transform="translate(140,169)"/>
<path d="M0 0 C0.66 0.33 1.32 0.66 2 1 C0.95199219 1.93972656 0.95199219 1.93972656 -0.1171875 2.8984375 C-1.02726563 3.71570313 -1.93734375 4.53296875 -2.875 5.375 C-3.77992188 6.18710938 -4.68484375 6.99921875 -5.6171875 7.8359375 C-7.10896183 9.19076205 -8.57505435 10.57505435 -10 12 C-10 8 -10 8 -8.3203125 6.11328125 C-7.59585938 5.51902344 -6.87140625 4.92476562 -6.125 4.3125 C-5.40570313 3.71050781 -4.68640625 3.10851562 -3.9453125 2.48828125 C-2 1 -2 1 0 0 Z " fill="#9FC339" transform="translate(156,140)"/>
<path d="M0 0 C-2.97 0.66 -5.94 1.32 -9 2 C-9 2.66 -9 3.32 -9 4 C-10.95890881 5.39300182 -12.9639118 6.72245446 -15 8 C-15.99 8.66 -16.98 9.32 -18 10 C-15.85714974 5.00001605 -13.00909415 2.23582846 -8 0.1875 C-4.54955999 -1.14011071 -3.90099274 -0.97524819 0 0 Z " fill="#3D963E" transform="translate(158,129)"/>
<path d="M0 0 C1.32 0.66 2.64 1.32 4 2 C4 5 4 5 2.5390625 6.60546875 C1.90742188 7.12753906 1.27578125 7.64960938 0.625 8.1875 C-0.31472656 8.98220703 -0.31472656 8.98220703 -1.2734375 9.79296875 C-3 11 -3 11 -5 11 C-3.99814595 8.76509481 -3.1888327 7.17430711 -1.375 5.5 C0.45048309 3.847706 0.45048309 3.847706 0 0 Z " fill="#379D42" transform="translate(185,168)"/>
<path d="M0 0 C0.33 0.66 0.66 1.32 1 2 C-0.04541151 3.49129308 -1.11208814 4.96769402 -2.1875 6.4375 C-2.77917969 7.26121094 -3.37085938 8.08492187 -3.98046875 8.93359375 C-6.31932973 11.32674163 -7.7220036 11.68861865 -11 12 C-10.29875 11.319375 -9.5975 10.63875 -8.875 9.9375 C-5.72065663 6.79219487 -2.86065696 3.4111614 0 0 Z " fill="#6EB543" transform="translate(182,166)"/>
<path d="M0 0 C0 4.04802459 -1.44992842 4.91379846 -4.25 7.75 C-5.03890625 8.56984375 -5.8278125 9.3896875 -6.640625 10.234375 C-9 12 -9 12 -11.296875 11.765625 C-11.85890625 11.51296875 -12.4209375 11.2603125 -13 11 C-12.39671875 10.54109375 -11.7934375 10.0821875 -11.171875 9.609375 C-9.97304687 8.68898437 -9.97304687 8.68898437 -8.75 7.75 C-7.96109375 7.14671875 -7.1721875 6.5434375 -6.359375 5.921875 C-4.08368843 4.06817005 -2.03628442 2.11101046 0 0 Z " fill="#88BD3F" transform="translate(178,165)"/>
<path d="M0 0 C0.66 0.33 1.32 0.66 2 1 C2 3.97 2 6.94 2 10 C0.68 10 -0.64 10 -2 10 C-2.6875 6.6875 -2.6875 6.6875 -3 3 C-1.5625 1.0625 -1.5625 1.0625 0 0 Z " fill="#8CBC3D" transform="translate(146,163)"/>
<path d="M0 0 C1.423125 0.2784375 1.423125 0.2784375 2.875 0.5625 C7.64479926 1.26768593 12.24924288 0.62132638 17 0 C17 0.66 17 1.32 17 2 C13.38132441 3.2062252 10.07493749 3.10816918 6.3125 3.0625 C5.61060547 3.05798828 4.90871094 3.05347656 4.18554688 3.04882812 C2.45699462 3.03706927 0.72848635 3.01913454 -1 3 C-0.67 2.01 -0.34 1.02 0 0 Z " fill="#6EB544" transform="translate(154,178)"/>
<path d="M0 0 C0.33 1.32 0.66 2.64 1 4 C-0.21484375 5.921875 -0.21484375 5.921875 -1.9375 7.75 C-2.50339844 8.36359375 -3.06929687 8.9771875 -3.65234375 9.609375 C-4.31943359 10.29773438 -4.31943359 10.29773438 -5 11 C-5.66 10.67 -6.32 10.34 -7 10 C-3.535 5.05 -3.535 5.05 0 0 Z " fill="#9DC239" transform="translate(175,161)"/>
<path d="M0 0 C0.66 0.33 1.32 0.66 2 1 C1.39671875 1.39832031 0.7934375 1.79664063 0.171875 2.20703125 C-0.62734375 2.73683594 -1.4265625 3.26664063 -2.25 3.8125 C-3.03890625 4.33457031 -3.8278125 4.85664063 -4.640625 5.39453125 C-6.81092481 6.87134122 -8.91413768 8.40689873 -11 10 C-10.34 8.35 -9.68 6.7 -9 5 C-8.34 5 -7.68 5 -7 5 C-7 4.34 -7 3.68 -7 3 C-4.69631264 1.93347808 -2.35981813 0.93578995 0 0 Z " fill="#6EB544" transform="translate(152,134)"/>
<path d="M0 0 C0.66 0.33 1.32 0.66 2 1 C2 2.65 2 4.3 2 6 C2.99 6.33 3.98 6.66 5 7 C5 7.66 5 8.32 5 9 C3.125 8.6875 3.125 8.6875 1 8 C-1 5 -1 5 -0.625 2.3125 C-0.41875 1.549375 -0.2125 0.78625 0 0 Z " fill="#73B442" transform="translate(142,167)"/>
<path d="M0 0 C3.1875 -0.3125 3.1875 -0.3125 7 0 C9.9375 2.5 9.9375 2.5 12 5 C11.67 5.99 11.34 6.98 11 8 C9 7 9 7 8 4 C7.34 3.67 6.68 3.34 6 3 C6 2.34 6 1.68 6 1 C4.02 1 2.04 1 0 1 C0 0.67 0 0.34 0 0 Z " fill="#5AAF45" transform="translate(169,134)"/>
<path d="" fill="#010101" transform="translate(0,0)"/>
</svg>
